<svg xmlns="http://www.w3.org/2000/svg" viewBox="0 0 512 512" role="img" aria-label="CEGALP">
  <!-- Outer background -->
  <rect width="512" height="512" rx="42" fill="#0c0d10"/>
  
  <!-- Inner rounded bg - lighter teal -->
  <rect x="14" y="14" width="164" height="164" rx="32" fill="#3ae8d1"/>
  
  <!-- Gymnastics logo scaled and centered -->
  <g transform="translate(0, 30) scale(0.18)">
    <path fill="#0c0d10" opacity="1.000000" stroke="none" 
      d="M604.750916,605.380493 C592.053589,601.687805 579.747375,598.101013 567.460938,594.447815 C565.429016,593.843628 563.728821,593.959106 561.775269,595.017395 C535.703064,609.141296 507.825470,617.536072 478.475006,621.453796 C444.411133,626.000854 410.893646,622.965820 378.132568,613.342773 C324.318573,597.535583 280.686432,566.642029 246.251068,522.403320 C216.078293,483.640778 198.097275,439.670197 190.128311,391.556122 C183.884308,353.856934 185.678955,316.299896 194.472107,279.036957 C201.917664,247.484680 213.557602,217.739105 231.040359,190.374924 C232.541580,188.025208 232.170990,186.550461 230.011627,184.963654 C187.148071,153.465286 156.903992,111.082184 128.449677,67.153366 C123.193436,59.038574 118.190842,50.783630 113.618744,42.259018 C111.553162,38.407764 110.622932,34.692421 113.999695,31.250334 C117.586655,27.593964 121.755135,27.754478 125.853714,30.351173 C134.342499,35.729336 141.341568,42.955513 148.976685,49.380817 C186.353180,80.834824 224.724701,110.970963 265.090027,138.535065 C268.455139,140.832962 270.017487,139.410187 272.176544,137.297974 C292.441528,117.472954 314.891754,100.625404 340.494934,88.292648 C378.931549,69.778214 419.558533,61.133678 462.142548,64.008690 C521.003601,67.982635 572.597046,89.766273 616.329041,129.636688 C618.046814,131.202805 619.608398,132.947922 621.158997,134.684418 C621.558228,135.131546 621.638550,135.863480 622.049927,136.953812 C615.008240,138.948074 608.146851,140.790741 601.346313,142.835800 C579.980408,149.261078 558.621887,155.712692 537.303040,162.291656 C534.341431,163.205597 531.902039,162.849808 529.196960,161.537796 C511.257751,152.836960 492.578644,146.421051 472.715454,143.866531 C434.813446,138.992096 399.072693,145.354523 365.886230,164.667755 C358.141998,169.174591 350.527863,173.908737 343.791840,179.701828 C344.253540,182.005981 346.071045,181.935501 347.353027,182.372253 C378.922974,193.128571 411.113495,201.500534 443.939209,207.430405 C448.031738,208.169724 451.730255,207.682205 455.487061,205.687256 C495.046844,184.680252 536.633789,168.608566 579.301758,155.225052 C620.806824,142.206299 663.082092,132.167572 705.502136,122.669037 C747.101196,113.354332 788.986450,105.489716 830.882996,97.695763 C876.072205,89.289284 921.479248,82.289993 967.280334,78.092697 C972.297729,77.632889 976.301086,80.270844 977.206238,84.510826 C978.171021,89.030228 975.286377,93.125610 969.378601,95.057259 C961.148865,97.748047 952.903503,100.421257 944.565430,102.745285 C894.206909,116.781372 843.777954,130.565979 793.454102,144.724823 C739.414368,159.929153 685.971375,176.984924 633.515564,197.066833 C589.731567,213.828842 547.001770,232.842468 506.529144,256.599457 C484.680573,269.424316 462.983856,282.681519 445.988922,301.956055 C422.738464,328.325134 408.582275,358.491730 409.354156,394.404022 C409.524750,402.342102 410.586456,410.260284 413.441193,419.405090 C414.772552,399.921509 421.816193,384.583527 435.755157,372.979218 C449.672516,361.392853 465.854797,356.854492 483.818542,359.727722 C514.972351,364.710663 537.867371,395.704559 533.940186,426.561005 C530.246521,455.583557 503.792908,488.543488 455.678314,477.728180 C461.801361,483.510071 468.206696,487.927826 474.511322,492.440338 C489.286774,503.015778 504.754303,512.539673 520.074951,522.291016 C523.991638,524.783997 527.132019,524.645081 531.081421,522.511536 C558.012329,507.963013 579.821594,487.806976 597.011047,462.604431 C599.215210,459.372772 601.513672,457.825958 605.511414,457.848389 C630.341919,457.987885 655.173645,457.905396 680.005005,457.930450 C681.777649,457.932220 683.707825,457.520782 685.648865,459.571381 C668.787781,502.246552 641.253357,537.319702 606.698669,567.229187 C607.461914,569.727966 609.664673,570.055908 611.344055,570.883667 C639.142944,584.585938 667.367065,597.348755 696.085632,609.007996 C704.572449,612.453430 713.078979,615.851074 721.592224,619.230774 C725.664673,620.847534 728.098267,623.607788 726.856873,628.092590 C725.587708,632.677673 722.158020,633.545471 717.769958,632.541260 C684.188171,624.856262 650.457703,617.801514 617.217468,608.676331 C613.203125,607.574341 609.171997,606.533386 604.750916,605.380493 M679.105286,141.722748 C651.214722,148.228745 623.432861,155.178802 596.002563,163.418350 C547.719788,177.921600 500.882385,196.076065 456.280334,219.732330 C452.642029,221.662018 448.926941,221.727051 445.117645,220.900024 C426.743530,216.910843 408.268677,213.408066 390.018860,208.815430 C370.773529,203.972244 352.069855,197.453476 333.231354,191.333206 C331.552277,190.787689 329.749908,189.600281 328.042786,191.127319 C319.593231,198.685593 312.063385,206.998154 306.449036,217.241776 C314.993561,222.967697 323.945374,227.047714 332.669037,231.478378 C346.922791,238.717682 361.445526,245.425491 375.766388,252.535507 C382.595062,255.925812 382.935181,260.017456 377.448761,265.267212 C372.159576,270.328217 366.851501,275.397186 361.916656,280.796204 C336.455078,308.652679 320.993805,341.063873 319.158325,379.068481 C317.048798,422.747406 332.415192,459.063019 365.990448,487.695190 C389.309387,507.581024 415.459106,522.762085 443.108826,535.351929 C496.442444,559.636475 552.006470,577.693787 608.532898,592.900513 C611.686646,593.748962 614.733093,593.758728 617.873047,592.824707 C619.613953,592.306824 621.618530,591.463928 623.035156,593.342590 C622.504028,595.465759 620.420776,594.058838 619.320801,595.259705 C628.019836,597.885254 630.084900,598.183533 632.980469,597.252502 C632.801331,596.807434 632.751038,596.216736 632.432556,595.963867 C629.386108,593.544556 625.636658,592.480408 622.217651,590.775513 C583.008423,571.224487 543.761414,551.763000 506.360291,528.811401 C483.321442,514.673462 460.737335,499.965179 440.560638,481.835785 C424.907990,467.771393 411.187653,452.325684 403.744049,432.168976 C390.004333,394.962982 395.503906,359.484833 413.497681,325.243652 C428.909302,295.916229 452.624481,274.619751 480.255798,257.194641 C523.403503,229.984528 569.452026,208.635880 616.751160,189.888794 C671.607727,168.146317 727.678589,149.972549 784.439941,133.914856 C812.480286,125.982269 840.594055,118.309601 868.660217,110.467812 C883.758484,106.249306 898.826294,101.921974 913.907837,97.643745 C911.376221,97.641212 908.945435,98.117668 906.496948,98.471619 C850.461365,106.572060 794.894409,117.312836 739.388489,128.357559 C719.479126,132.319168 699.731323,137.092804 679.105286,141.722748 M516.407043,596.848328 C524.644592,594.031677 532.879700,591.209045 541.625916,587.104004 C539.102661,586.065430 537.627014,585.342712 536.080078,584.838989 C516.919495,578.599365 497.864014,572.029297 479.167145,564.533508 C469.151611,560.518188 459.328400,558.593140 448.317413,558.831177 C421.013000,559.421387 394.674622,553.540527 369.827515,542.092102 C328.095886,522.864014 296.545502,492.292725 275.209137,452.024841 C251.507187,407.292480 243.808975,359.289978 252.096283,309.152069 C259.641846,263.501709 278.283325,222.997818 309.980347,188.939499 C347.603760,148.513321 393.890442,126.806915 449.334320,126.100616 C477.591156,125.740654 504.434631,132.685425 529.865295,144.939087 C532.666321,146.288803 535.077698,146.321335 537.948242,145.439346 C553.705750,140.597778 569.515198,135.925766 585.287415,131.131424 C586.592773,130.734634 588.418152,130.997040 588.997314,128.842773 C588.531677,128.306686 588.095276,127.571335 587.460083,127.109390 C581.937805,123.093582 576.590637,118.786423 570.799011,115.199417 C525.475281,87.128258 476.208740,75.715881 423.179474,81.094269 C374.180176,86.063911 331.343048,105.512047 294.822998,138.229660 C250.681366,177.775238 222.440887,227.001419 209.354050,284.738708 C200.169922,325.257782 200.145569,365.938171 209.374268,406.516083 C222.903229,466.001923 252.196838,516.011963 299.746277,554.644958 C342.073120,589.034607 390.809570,606.450806 445.324677,607.631531 C469.359344,608.152161 492.758392,604.289429 516.407043,596.848328 M265.252777,334.637482 C264.952942,347.968201 265.024689,361.252686 267.069580,374.507660 C276.336884,434.578583 304.184479,482.978790 355.943329,516.346863 C377.073669,529.969238 400.227081,538.258423 425.223846,541.415100 C423.501556,540.108154 421.662292,539.059753 419.767120,538.124573 C401.029449,528.878052 383.323212,517.942688 366.776611,505.203217 C323.658051,472.005615 302.158905,428.925049 306.552673,373.812531 C309.145905,341.284515 321.047913,312.513519 340.197845,286.467957 C346.784851,277.509094 354.305389,269.329346 362.414337,261.123474 C361.743378,260.673706 361.361694,260.353912 360.928589,260.136749 C341.270477,250.281647 321.592590,240.465759 301.963348,230.553543 C299.233917,229.175247 297.924194,230.518204 296.795288,232.579422 C293.914856,237.838684 290.935760,243.051712 288.268585,248.418640 C274.912567,275.294098 267.307037,303.738464 265.252777,334.637482 M438.749268,388.259064 C429.326263,400.050262 425.350647,413.155487 428.134644,428.312988 C432.454620,451.833008 452.846069,468.265839 476.047089,466.838379 C502.871246,465.188019 520.073669,443.273987 520.659546,420.911163 C521.164795,401.628662 509.679352,383.793335 492.311951,376.530212 C473.684479,368.740173 453.451508,373.007385 438.749268,388.259064 M616.908875,535.408142 C634.499329,517.372253 649.270508,497.310760 661.539307,474.450836 C658.902771,474.322327 657.273376,474.176208 655.643799,474.173920 C641.663391,474.154236 627.681274,474.280945 613.703674,474.081665 C609.787231,474.025848 607.283386,475.300598 604.993530,478.499603 C591.905029,496.784698 576.179810,512.466492 557.681824,525.300598 C553.095093,528.482849 548.360718,531.452393 543.079407,534.923889 C545.492554,536.494812 547.193115,537.783997 549.050415,538.781372 C560.922607,545.156433 572.886047,551.364380 584.687927,557.866089 C587.966553,559.672241 590.375610,559.476501 593.165161,557.048889 C601.069519,550.170044 609.184937,543.531250 616.908875,535.408142 M256.288177,148.212112 C216.696777,121.237411 179.089798,91.638657 141.911774,61.379795 C142.327789,63.192421 143.011063,64.689209 143.880768,66.068428 C159.012482,90.065323 175.266235,113.263977 194.324829,134.328461 C207.182175,148.539047 220.544830,162.285309 236.441147,173.274246 C239.342651,175.280014 241.036209,175.343079 243.323593,172.272156 C247.694656,166.403717 252.460602,160.811554 257.317230,155.330292 C259.682251,152.661072 260.332520,150.639450 256.288177,148.212112 z"/>
  </g>
  
  <!-- CEGALP text -->
  <text x="96" y="172" text-anchor="middle" font-family="'IBM Plex Mono', monospace" font-size="12" font-weight="800" letter-spacing="1.5" fill="#0c0d10">CEGALP</text>
</svg>
