<svg xmlns="http://www.w3.org/2000/svg" width="192" height="192" viewBox="0 0 192 192" role="img" aria-label="CEGALP">
  <rect width="192" height="192" rx="42" fill="#0c0d10"/>
  <rect x="14" y="14" width="165" height="165" rx="34" fill="#29d9c2"/>
  <path d="M54 64c0-15 12-26 29-26 13 0 23 6 29 16l-17 10c-3-6-7-9-13-9-8 0-13 6-13 14v54c0 8 5 14 13 14 7 0 11-4 14-10l17 10c-6 11-17 17-31 17-17 0-28-11-28-26V64Z" fill="#0c0d10"/>
  <path d="M121 39h18v75h29v17h-47V39Z" fill="#0c0d10"/>
  <text x="96" y="164" text-anchor="middle" font-family="Arial, sans-serif" font-size="14" font-weight="900" letter-spacing="2" fill="#0c0d10">CEGALP</text>
</svg>
